<?xml version="1.0" encoding="iso-8859-1"?>
<!-- Generator: Adobe Illustrator 19.0.0, SVG Export Plug-In . SVG Version: 6.00 Build 0)  -->
<svg version="1.1" id="Capa_1" xmlns="http://www.w3.org/2000/svg" xmlns:xlink="http://www.w3.org/1999/xlink" x="0px" y="0px"
	 viewBox="0 0 512 512" style="enable-background:new 0 0 512 512;" xml:space="preserve">
<g>
	<g>
		<path d="M383.5,30c-5.856,0-11.449,1.136-16.586,3.181C361.71,14.085,344.224,0,323.5,0c-11.517,0-22.032,4.354-30,11.495
			C285.533,4.354,275.018,0,263.5,0c-11.515,0-22.033,4.347-30,11.486C225.534,4.347,215.016,0,203.5,0c-24.813,0-45,20.187-45,45
			v15.339c-41.969,3.693-75,39.015-75,81.927v49.711c0,35.667,16.134,68.7,44.265,90.63c19.243,15.001,30.932,41.015,30.932,69.586
			L158.701,497c0,8.284,6.516,15,14.8,15h195c8.284,0,15-6.716,15-15V333.306c0-18.254,6.031-36.349,16.982-50.95l5.034-6.711
			c14.821-19.761,22.983-44.249,22.983-68.951c0-4.976,0-126.73,0-131.694C428.5,50.187,408.313,30,383.5,30z M308.5,45
			c0-8.271,6.729-15,15-15s15,6.729,15,15v30v90c0,8.271-6.729,15-15,15s-15-6.729-15-15V45z M248.5,45c0-8.271,6.729-15,15-15
			s15,6.729,15,15v20.076C271.677,61.825,264.049,60,256,60h-7.5V45z M188.5,45c0-8.271,6.729-15,15-15s15,6.729,15,15v15h-30V45z
			 M381.518,257.644l-5.034,6.711c-14.821,19.761-22.983,44.249-22.983,68.951V482h-165l-0.003-129.808
			c0-37.746-15.809-72.604-42.289-93.246c-20.786-16.204-32.708-40.614-32.708-66.969v-49.711C113.5,113.446,136.946,90,165.766,90
			H256c12.406,0,22.5,10.094,22.5,22.5S268.406,135,256,135h-82.5c-8.284,0-15,6.716-15,15c0,33.204,19.532,63.537,49.753,77.273
			l0.573,0.261c19.849,9.022,32.674,28.635,32.674,49.966v7.5c0,8.284,6.716,15,15,15s15-6.716,15-15v-7.5
			c0-30.857-17.185-59.329-44.288-74.272c2.233-1.39,4.338-2.967,6.288-4.715c7.967,7.139,18.485,11.486,30,11.486
			c11.517,0,22.032-4.354,30-11.495c7.968,7.141,18.483,11.495,30,11.495c11.517,0,22.032-4.354,30-11.495
			c7.968,7.141,18.483,11.495,30,11.495c5.253,0,10.294-0.913,14.985-2.575C398.326,225.43,392.323,243.238,381.518,257.644z
			 M278.5,159.924V165c0,8.271-6.729,15-15,15s-15-6.729-15-15C257.354,165,266.542,165.621,278.5,159.924z M218.5,165
			c0,8.271-6.729,15-15,15c-2.624,0-4.969-0.633-7.178-1.819c-2.461-4.108-4.397-8.535-5.723-13.181H218.5z M398.5,165
			c0,8.271-6.729,15-15,15s-15-6.729-15-15V75c0-8.271,6.729-15,15-15s15,6.729,15,15V165z"/>
	</g>
</g>
<g>
</g>
<g>
</g>
<g>
</g>
<g>
</g>
<g>
</g>
<g>
</g>
<g>
</g>
<g>
</g>
<g>
</g>
<g>
</g>
<g>
</g>
<g>
</g>
<g>
</g>
<g>
</g>
<g>
</g>
</svg>
